<?xml version="1.0" encoding="UTF-8" standalone="no"?>
<!-- Created with Inkscape (http://www.inkscape.org/) -->

<svg
   xmlns:dc="http://purl.org/dc/elements/1.1/"
   xmlns:cc="http://creativecommons.org/ns#"
   xmlns:rdf="http://www.w3.org/1999/02/22-rdf-syntax-ns#"
   xmlns:svg="http://www.w3.org/2000/svg"
   xmlns="http://www.w3.org/2000/svg"
   xmlns:sodipodi="http://sodipodi.sourceforge.net/DTD/sodipodi-0.dtd"
   xmlns:inkscape="http://www.inkscape.org/namespaces/inkscape"
   width="210mm"
   height="297mm"
   viewBox="0 0 210 297"
   version="1.1"
   id="svg8"
   inkscape:version="0.92.4 (5da689c313, 2019-01-14)"
   sodipodi:docname="aliran.svg">
  <defs
     id="defs2" />
  <sodipodi:namedview
     id="base"
     pagecolor="#ffffff"
     bordercolor="#666666"
     borderopacity="1.0"
     inkscape:pageopacity="0.0"
     inkscape:pageshadow="2"
     inkscape:zoom="0.35"
     inkscape:cx="-70"
     inkscape:cy="445.71429"
     inkscape:document-units="mm"
     inkscape:current-layer="g823"
     showgrid="false"
     inkscape:window-width="1920"
     inkscape:window-height="1001"
     inkscape:window-x="-9"
     inkscape:window-y="-9"
     inkscape:window-maximized="1" />
  <metadata
     id="metadata5">
    <rdf:RDF>
      <cc:Work
         rdf:about="">
        <dc:format>image/svg+xml</dc:format>
        <dc:type
           rdf:resource="http://purl.org/dc/dcmitype/StillImage" />
        <dc:title></dc:title>
      </cc:Work>
    </rdf:RDF>
  </metadata>
  <g
     inkscape:label="Layer 1"
     inkscape:groupmode="layer"
     id="layer1">
    <g
       transform="matrix(-0.3052261,0,0,-0.2945656,192.97947,318.80741)"
       inkscape:label="aliran"
       id="g823"
       style="stroke-width:2.55128859;stroke:#000000;stroke-opacity:1;stroke-miterlimit:4;stroke-dasharray:none">
      <g
         id="g825"
         style="stroke-width:8.2208188;stroke:#000000;stroke-opacity:1;stroke-miterlimit:4;stroke-dasharray:none">
        <path
           inkscape:connector-curvature="0"
           id="path827"
           style="fill:none;stroke:#000000;stroke-width:8.2208188;stroke-linecap:round;stroke-linejoin:round;stroke-miterlimit:4;stroke-dasharray:none;stroke-opacity:1"
           d="M 289.12,479.84 V 280.32001 L 397.12,125.76" />
      </g>
      <g
         transform="translate(289.12,479.84)"
         id="g829"
         style="stroke-width:8.2208188;stroke:#000000;stroke-opacity:1;stroke-miterlimit:4;stroke-dasharray:none">
        <path
           inkscape:connector-curvature="0"
           id="path831"
           style="fill:none;stroke:#000000;stroke-width:8.2208188;stroke-linecap:round;stroke-linejoin:round;stroke-miterlimit:4;stroke-dasharray:none;stroke-opacity:1"
           d="m 0,0 14.72,-8.48 7.36,-4 7.52,-3.84 7.359999,-3.68 7.360001,-3.360001 7.2,-2.879999 7.360001,-2.559999 7.200001,-1.92 7.199997,-1.440001 3.68,-0.479999 3.520004,-0.32 3.680001,-0.16 H 87.68 l 3.519997,0.32 3.520004,0.319999 3.519997,0.64 3.520002,0.799999 3.52,1.120001 3.52,1.120001 3.36,1.439998 3.36,1.600001 3.36,1.76 3.36,1.92 3.2,2.08 3.2,2.4 6.24,4.96 5.92,5.44 5.59999,6.08 5.28,6.4 4.80001,6.88 4.32,7.200001 4,7.68 3.36,7.84 2.87999,8 2.24001,8.16 1.75999,8.479999 1.28002,8.48 0.79998,8.480003 0.32001,8.64 -0.32001,8.479995 -0.63999,8.480002 -1.12,8.48 -1.60001,8.32 -1.91999,8 -2.4,8 -2.88,7.68 -3.2,7.36 -3.68001,7.04001 -4,6.55999 -4.31999,6.23999 -4.8,5.92 -5.12,5.28002 -5.28,4.79998 -2.88,2.24001 -2.88001,2.08 -6.07999,3.67999 -6.4,3.20002 -6.56,2.55999 -6.88,2.23999 -7.039998,1.60001 -7.36,1.28 -7.360001,0.8 -7.840004,0.31999 h -7.839996 l -8,-0.47999 -8.16,-0.8 -8.16,-1.12 -8.479999,-1.44 L 25.92,200.16 17.280001,198.08 8.8,195.84 l -8.64,-2.56 -8.48,-2.72 -8.639999,-3.04 -17.120003,-6.40001 -16.799999,-6.72 L -67.519997,167.84 -75.68,164.8 l -8,-2.88 -7.839997,-2.4 -7.68,-2.24 -7.520003,-1.76 -7.36,-1.28 -7.04,-0.63999 -3.52,-0.16001 h -3.52 l -3.36,0.31999 -3.36,0.32001 -3.2,0.48 -3.2,0.8 -3.2,0.96001 -3.04,1.11999 -3.04,1.44 -2.88,1.44001 -2.88001,1.91999 -2.71998,1.92 -2.72,2.23999 -2.72001,2.56002 -2.55999,2.55999 -2.40001,2.87999 -2.4,3.04001 -2.24,3.2 -2.08,3.2 -2.08,3.52 -2.08001,3.52 -1.75999,3.84 -3.36,7.67999 -2.88001,8.16001 -2.39999,8.47999 -1.76,8.48001 -1.27999,8.80001 -0.64,8.79998 -0.16001,4.32001 v 4.31999 l 0.32,4.32 0.32,4.32 0.64,4.16001 0.64,4.16 0.96001,4.16 0.95999,4 1.28,3.84 1.44,3.84 1.76,3.67999 1.76,3.52002 2.08001,3.51999 2.07998,3.20001 2.40001,3.19998 2.56,3.20001 2.72,2.88001 2.72,2.88 3.04,2.56 3.04,2.56 3.2,2.56 3.2,2.23999 6.88,4.16 7.36,3.84 7.36,3.04001 7.68,2.72 7.84,2.07998 7.84,1.60001 8,1.12 7.840001,0.48001 h 7.68 l 7.68,-0.64002 7.519997,-0.79999 7.520004,-1.44 7.519997,-1.6 7.52,-2.07999 7.360001,-2.24002 7.36,-2.56 7.359999,-2.72 L -14.56,321.60001 0,315.51999" />
      </g>
      <g
         id="g833"
         style="stroke-width:8.2208188;stroke:#000000;stroke-opacity:1;stroke-miterlimit:4;stroke-dasharray:none">
        <path
           inkscape:connector-curvature="0"
           id="path835"
           style="fill:none;stroke:#000000;stroke-width:8.2208188;stroke-linecap:round;stroke-linejoin:round;stroke-miterlimit:4;stroke-dasharray:none;stroke-opacity:1"
           d="M 289.12,1033.4399 392,866.08002 l -102.88,70.88" />
      </g>
      <g
         id="g837"
         style="stroke-width:8.2208188;stroke:#000000;stroke-opacity:1;stroke-miterlimit:4;stroke-dasharray:none">
        <path
           inkscape:connector-curvature="0"
           id="path839"
           style="fill:none;stroke:#000000;stroke-width:8.2208188;stroke-linecap:round;stroke-linejoin:round;stroke-miterlimit:4;stroke-dasharray:none;stroke-opacity:1"
           d="m 289.12,795.35998 v 238.07992 m 0,-753.11989 L 180.96001,125.76" />
      </g>
      <g
         id="g841"
         style="stroke-width:8.2208188;stroke:#000000;stroke-opacity:1;stroke-miterlimit:4;stroke-dasharray:none">
        <path
           inkscape:connector-curvature="0"
           id="path843"
           style="fill:none;stroke:#000000;stroke-width:8.2208188;stroke-linecap:round;stroke-linejoin:round;stroke-miterlimit:4;stroke-dasharray:none;stroke-opacity:1"
           d="m 289.12,1033.4399 -102.88,-167.35988 102.88,70.88" />
      </g>
    </g>
  </g>
</svg>
