<?xml version="1.0" encoding="UTF-8" standalone="no"?>
<svg
   viewBox="0 0 19.46875 19.46875"
   id="svg2"
   version="1.1"
   inkscape:version="1.1.1 (3bf5ae0d25, 2021-09-20)"
   width="100%"
   height="100%"
   sodipodi:docname="Drainage outlet.svg"
   xmlns:inkscape="http://www.inkscape.org/namespaces/inkscape"
   xmlns:sodipodi="http://sodipodi.sourceforge.net/DTD/sodipodi-0.dtd"
   xmlns="http://www.w3.org/2000/svg"
   xmlns:svg="http://www.w3.org/2000/svg"
   xmlns:rdf="http://www.w3.org/1999/02/22-rdf-syntax-ns#"
   xmlns:cc="http://creativecommons.org/ns#"
   xmlns:dc="http://purl.org/dc/elements/1.1/">
  <metadata
     id="metadata90">
    <rdf:RDF>
      <cc:Work
         rdf:about="">
        <dc:format>image/svg+xml</dc:format>
        <dc:type
           rdf:resource="http://purl.org/dc/dcmitype/StillImage" />
        <dc:title />
      </cc:Work>
    </rdf:RDF>
  </metadata>
  <defs
     id="defs88">
    <marker
       style="overflow:visible"
       refY="0.0"
       refX="0.0"
       orient="auto"
       id="DistanceX">
      <path
         id="path3823"
         style="stroke:#000000; stroke-width:0.5"
         d="M 3,-3 L -3,3 M 0,-5 L  0,5" />
    </marker>
    <pattern
       y="0"
       x="0"
       width="8"
       patternUnits="userSpaceOnUse"
       id="Hatch"
       height="8">
      <path
         id="path3826"
         stroke-width="0.25"
         stroke="#000000"
         linecap="square"
         d="M8 4 l-4,4" />
      <path
         id="path3828"
         stroke-width="0.25"
         stroke="#000000"
         linecap="square"
         d="M6 2 l-4,4" />
      <path
         id="path3830"
         stroke-width="0.25"
         stroke="#000000"
         linecap="square"
         d="M4 0 l-4,4" />
    </pattern>
    <symbol
       id="*MODEL_SPACE" />
    <symbol
       id="*PAPER_SPACE" />
    <marker
       style="overflow:visible"
       refY="0.0"
       refX="0.0"
       orient="auto"
       id="DistanceX-7">
      <path
         id="path3903"
         style="stroke:#000000; stroke-width:0.5"
         d="M 3,-3 L -3,3 M 0,-5 L  0,5" />
    </marker>
    <pattern
       y="0"
       x="0"
       width="8"
       patternUnits="userSpaceOnUse"
       id="Hatch-8"
       height="8">
      <path
         id="path3906"
         stroke-width="0.25"
         stroke="#000000"
         linecap="square"
         d="M8 4 l-4,4" />
      <path
         id="path3908"
         stroke-width="0.25"
         stroke="#000000"
         linecap="square"
         d="M6 2 l-4,4" />
      <path
         id="path3910"
         stroke-width="0.25"
         stroke="#000000"
         linecap="square"
         d="M4 0 l-4,4" />
    </pattern>
    <symbol
       id="*MODEL_SPACE-5" />
    <symbol
       id="*PAPER_SPACE-3" />
    <marker
       style="overflow:visible"
       refY="0.0"
       refX="0.0"
       orient="auto"
       id="DistanceX-3">
      <path
         id="path3947"
         style="stroke:#000000; stroke-width:0.5"
         d="M 3,-3 L -3,3 M 0,-5 L  0,5" />
    </marker>
    <pattern
       y="0"
       x="0"
       width="8"
       patternUnits="userSpaceOnUse"
       id="Hatch-6"
       height="8">
      <path
         id="path3950"
         stroke-width="0.25"
         stroke="#000000"
         linecap="square"
         d="M8 4 l-4,4" />
      <path
         id="path3952"
         stroke-width="0.25"
         stroke="#000000"
         linecap="square"
         d="M6 2 l-4,4" />
      <path
         id="path3954"
         stroke-width="0.25"
         stroke="#000000"
         linecap="square"
         d="M4 0 l-4,4" />
    </pattern>
    <symbol
       id="*MODEL_SPACE-0" />
    <symbol
       id="*PAPER_SPACE-9" />
    <pattern
       id="EMFhbasepattern"
       patternUnits="userSpaceOnUse"
       width="6"
       height="6"
       x="0"
       y="0" />
    <pattern
       id="EMFhbasepattern-2"
       patternUnits="userSpaceOnUse"
       width="6"
       height="6"
       x="0"
       y="0" />
  </defs>
  <sodipodi:namedview
     pagecolor="#ffffff"
     bordercolor="#666666"
     borderopacity="1"
     objecttolerance="10"
     gridtolerance="10"
     guidetolerance="10"
     inkscape:pageopacity="0"
     inkscape:pageshadow="2"
     inkscape:window-width="2400"
     inkscape:window-height="1261"
     id="namedview86"
     showgrid="false"
     inkscape:zoom="16"
     inkscape:cx="29.34375"
     inkscape:cy="16.09375"
     inkscape:window-x="2391"
     inkscape:window-y="-9"
     inkscape:window-maximized="1"
     inkscape:current-layer="layer4"
     showguides="false"
     inkscape:guide-bbox="true"
     fit-margin-top="0"
     fit-margin-left="0"
     fit-margin-right="0"
     fit-margin-bottom="0"
     inkscape:document-rotation="0"
     inkscape:pagecheckerboard="0">
    <sodipodi:guide
       orientation="1,0"
       position="-0.26250044,36.560954"
       id="guide3018"
       inkscape:locked="false" />
    <sodipodi:guide
       orientation="0,1"
       position="-22.309534,9.7362514"
       id="guide3020"
       inkscape:locked="false" />
    <sodipodi:guide
       orientation="0,1"
       position="-47.078644,19.736251"
       id="guide3022"
       inkscape:locked="false" />
    <sodipodi:guide
       orientation="1,0"
       position="19.7375,54.779561"
       id="guide3024"
       inkscape:locked="false" />
    <sodipodi:guide
       orientation="1,0"
       position="9.7375,80.367481"
       id="guide3026"
       inkscape:locked="false" />
    <sodipodi:guide
       orientation="0,1"
       position="-137.76225,-0.2637485"
       id="guide3028"
       inkscape:locked="false" />
  </sodipodi:namedview>
  <g
     inkscape:groupmode="layer"
     id="layer4"
     inkscape:label="diff"
     style="display:inline">
    <path
       style="fill:none;stroke:#ff0100;stroke-width:1.42757;stroke-linecap:round;stroke-linejoin:round;stroke-miterlimit:4;stroke-dasharray:none;stroke-opacity:1"
       d="M 1.2089885,18.39522 H 18.353514 V 1.1672797 H 1.2089885 Z"
       id="path1357" />
    <path
       style="fill:none;stroke:#ff0100;stroke-width:1.42757;stroke-linecap:round;stroke-linejoin:round;stroke-miterlimit:4;stroke-dasharray:none;stroke-opacity:1"
       d="m 15.494472,9.78125 -0.0016,-0.1497234 -0.0064,-0.1513509 -0.0097,-0.1497234 -0.01299,-0.149722 -0.01783,-0.1480961 -0.02107,-0.1497234 -0.02593,-0.1480961 -0.02918,-0.148096 -0.03242,-0.1464686 -0.03727,-0.1448411 -0.04051,-0.1448411 -0.04538,-0.1432123 -0.047,-0.1432152 -0.05187,-0.1399589 -0.0551,-0.1399589 -0.05997,-0.1383314 -0.06159,-0.136704 -0.06646,-0.1350766 -0.0697,-0.1318217 -0.07293,-0.1318218 -0.07618,-0.1285669 -0.08104,-0.1269394 -0.08265,-0.125312 -0.0859,-0.1236846 -0.08918,-0.1204297 -0.09401,-0.1171749 -0.09561,-0.1155474 -0.09725,-0.11392 L 13.925641,5.828227 13.821919,5.7208167 13.713324,5.616661 13.604729,5.5141334 13.49128,5.4148598 13.376203,5.3188414 13.2595,5.2260781 13.139556,5.13657 13.017998,5.0486889 12.8932,4.9656899 l -0.126426,-0.079744 -0.128038,-0.076489 -0.131279,-0.073235 -0.132907,-0.06998 -0.132906,-0.066724 -0.136148,-0.063469 -0.13776,-0.058587 -0.139389,-0.05696 -0.139387,-0.052078 -0.142629,-0.047196 -0.142628,-0.045568 -0.144248,-0.040686 -0.144248,-0.03743 -0.145871,-0.032548 -0.14749,-0.029294 -0.14749,-0.026039 -0.147489,-0.021157 -0.149113,-0.017902 -0.14749,-0.012991 -0.150731,-0.00971 -0.149111,-0.00657 -0.1491112,-0.00157 -0.1491111,0.00157 -0.149111,0.00657 -0.1507314,0.00971 -0.1474906,0.012991 -0.1491111,0.017902 -0.1474893,0.021157 -0.1474907,0.026039 -0.1474908,0.029294 -0.1458689,0.032548 -0.1442488,0.03743 -0.1442487,0.040686 -0.1426284,0.045568 -0.1426284,0.047196 -0.1393879,0.052078 -0.1393878,0.05696 -0.1377604,0.058587 -0.1361473,0.063469 -0.1329066,0.066724 -0.1329068,0.06998 -0.1296661,0.073235 -0.1296661,0.076489 -0.1264255,0.079744 -0.124798,0.082999 L 6.4230516,5.13657 6.3031214,5.2260781 6.1864319,5.3188414 6.0713556,5.4148598 5.9579067,5.5141334 5.8493115,5.616661 5.7407163,5.7208167 5.636989,5.828227 5.5348748,5.9388922 l -0.097246,0.11392 -0.095577,0.1155474 -0.094005,0.1171749 -0.089137,0.1204297 -0.085897,0.1236846 -0.082656,0.125312 -0.081043,0.1269394 -0.076175,0.1285669 -0.072934,0.1318218 -0.069694,0.1318217 -0.066453,0.1350766 -0.061586,0.136704 -0.059973,0.1383314 -0.055104,0.1399589 -0.051863,0.1399589 -0.046996,0.1432152 -0.045383,0.1432123 -0.040528,0.1448411 -0.037274,0.1448411 -0.03242,0.1464686 -0.02918,0.148096 -0.025925,0.1480961 -0.021071,0.1497234 -0.01783,0.1480961 -0.012991,0.149722 -0.00971,0.1497234 -0.00642,0.1513509 -0.00157,0.1497234 0.00157,0.1497233 0.00642,0.1513517 0.00971,0.149723 0.012991,0.149722 0.01783,0.148095 0.021071,0.149724 0.025925,0.148096 0.02918,0.148096 0.03242,0.146469 0.037274,0.144841 0.040528,0.144841 0.045383,0.143214 0.046996,0.143212 0.051863,0.139959 0.055104,0.139959 0.059973,0.138332 0.061586,0.136704 0.066453,0.135076 0.069694,0.131822 0.072934,0.131822 0.076175,0.128566 0.081043,0.12694 0.082656,0.125311 0.085897,0.123686 0.089137,0.120429 0.094006,0.117175 0.095619,0.115547 0.097246,0.11392 0.1021142,0.110665 0.1037273,0.107411 0.1085952,0.10416 0.1085952,0.102526 0.1134489,0.09928 0.1150763,0.09602 0.1166895,0.09276 0.1199302,0.0895 0.1215574,0.08788 0.1247981,0.083 0.1264255,0.07975 0.1296661,0.07649 0.1296661,0.07323 0.1329068,0.06997 0.1329066,0.06673 0.1361473,0.06347 0.1377604,0.05859 0.1393878,0.05696 0.1393879,0.05208 0.1426283,0.0472 0.1426285,0.04556 0.1442487,0.04068 0.1442487,0.03743 0.145869,0.03255 0.1474908,0.02929 0.1474907,0.02604 0.1474893,0.02115 0.1491111,0.0179 0.1474906,0.01299 0.1507314,0.0097 0.1491109,0.0065 0.1491108,0.0016 0.1491116,-0.0016 0.149111,-0.0065 0.150731,-0.0097 0.14749,-0.01299 0.149112,-0.0179 0.14749,-0.02115 0.147489,-0.02604 0.147491,-0.02929 0.145871,-0.03255 0.144248,-0.03743 0.144247,-0.04068 0.142629,-0.04556 0.142629,-0.0472 0.139387,-0.05208 0.139389,-0.05696 0.13776,-0.05859 0.136147,-0.06347 0.132906,-0.06673 0.132907,-0.06997 0.129666,-0.07323 0.129666,-0.07649 0.126426,-0.07975 0.124798,-0.083 0.121558,-0.08788 0.119944,-0.0895 0.116704,-0.09276 0.115076,-0.09602 0.113449,-0.09928 0.108595,-0.102526 0.108595,-0.10416 0.103722,-0.107411 0.102109,-0.110665 0.09725,-0.11392 0.09561,-0.115547 0.09401,-0.117175 0.08914,-0.120429 0.08589,-0.123686 0.08265,-0.125311 0.08104,-0.12694 0.07617,-0.128566 0.07293,-0.131822 0.0697,-0.131822 0.06645,-0.135076 0.06159,-0.136704 0.05998,-0.138332 0.0551,-0.139959 0.05187,-0.139959 0.047,-0.143212 0.04538,-0.143214 0.04051,-0.144841 0.03727,-0.144841 0.03242,-0.146469 0.02918,-0.148096 0.02593,-0.148096 0.02107,-0.149724 0.01783,-0.148095 0.01299,-0.149722 0.0097,-0.149723 0.0064,-0.1513517 z"
       id="path1359" />
    <path
       style="fill:#ff0000;stroke:#ff0100;stroke-width:0.03125;stroke-miterlimit:4;stroke-dasharray:none;stroke-opacity:1"
       d="m 9.171875,14.760677 c -0.060156,-0.0078 -0.2700144,-0.04975 -0.4663512,-0.09331 -1.9606943,-0.434925 -3.4618462,-2.011228 -3.8347694,-4.026746 -0.080243,-0.433687 -0.080243,-1.2850625 0,-1.71875 C 5.1606071,7.3553233 6.1289454,6.0388183 7.5115271,5.3316104 7.9436241,5.1105874 8.2521013,4.9970602 8.7211488,4.8864399 9.0704475,4.8040612 9.1367463,4.7985655 9.78125,4.7985655 c 0.644504,0 0.710803,0.0055 1.060101,0.087874 2.011174,0.4743157 3.475443,2.0089543 3.850395,4.0354351 0.08024,0.4336875 0.08024,1.2850634 0,1.7187504 -0.374971,2.026583 -1.851431,3.57319 -3.850395,4.033329 -0.32585,0.07501 -0.4471,0.08671 -0.966351,0.09331 -0.3265625,0.0041 -0.6429687,0.0012 -0.703125,-0.0066 z"
       id="path2152" />
  </g>
  <g
     inkscape:groupmode="layer"
     id="layer3"
     inkscape:label="base_layer"
     style="display:inline" />
</svg>
