<?xml version="1.0" encoding="UTF-8"?>
<!DOCTYPE svg PUBLIC "-//W3C//DTD SVG 1.1//EN" "http://www.w3.org/Graphics/SVG/1.1/DTD/svg11.dtd">
<svg xmlns="http://www.w3.org/2000/svg" version="1.1" width="559px" height="447px" style="shape-rendering:geometricPrecision; text-rendering:geometricPrecision; image-rendering:optimizeQuality; fill-rule:evenodd; clip-rule:evenodd" xmlns:xlink="http://www.w3.org/1999/xlink">
<g><path style="opacity:1" fill="#ff0e05" d="M 292.5,76.5 C 291.167,76.5 290.5,77.1667 290.5,78.5C 285.861,82.9678 281.028,87.3011 276,91.5C 275.5,119.165 275.333,146.831 275.5,174.5C 294.167,174.5 312.833,174.5 331.5,174.5C 331.5,184.833 331.5,195.167 331.5,205.5C 302.167,205.5 272.833,205.5 243.5,205.5C 243.333,162.499 243.5,119.499 244,76.5C 250.372,70.6243 256.872,64.9577 263.5,59.5C 265.749,58.9202 267.415,57.5869 268.5,55.5C 269.028,54.2794 269.695,53.1127 270.5,52C 279,44.9977 287.334,37.831 295.5,30.5C 297.749,29.9202 299.415,28.5869 300.5,26.5C 303.499,22.6684 306.999,19.3351 311,16.5C 318.352,24.351 325.519,32.351 332.5,40.5C 319.471,52.8638 306.138,64.8638 292.5,76.5 Z"/></g>
<g><path style="opacity:0.906" fill="#ff715d" d="M 300.5,26.5 C 299.415,28.5869 297.749,29.9202 295.5,30.5C 296.585,28.4131 298.251,27.0798 300.5,26.5 Z"/></g>
<g><path style="opacity:0.894" fill="#ff6e5a" d="M 268.5,55.5 C 267.415,57.5869 265.749,58.9202 263.5,59.5C 264.585,57.4131 266.251,56.0798 268.5,55.5 Z"/></g>
<g><path style="opacity:0.227" fill="#ffb9b7" d="M 292.5,76.5 C 292.167,77.5 291.5,78.1667 290.5,78.5C 290.5,77.1667 291.167,76.5 292.5,76.5 Z"/></g>
<g><path style="opacity:0.691" fill="#ff5555" d="M 331.5,174.5 C 332.494,184.987 332.828,195.654 332.5,206.5C 302.662,206.831 272.995,206.498 243.5,205.5C 272.833,205.5 302.167,205.5 331.5,205.5C 331.5,195.167 331.5,184.833 331.5,174.5 Z"/></g>
<g><path style="opacity:1" fill="#ff0a03" d="M 243.5,237.5 C 272.833,237.5 302.167,237.5 331.5,237.5C 331.5,247.833 331.5,258.167 331.5,268.5C 312.5,268.5 293.5,268.5 274.5,268.5C 274.169,298.671 274.502,328.671 275.5,358.5C 281.463,363.128 287.13,368.128 292.5,373.5C 292.5,374.833 293.167,375.5 294.5,375.5C 296.5,376.833 298.167,378.5 299.5,380.5C 300.035,382.446 301.368,383.446 303.5,383.5C 303.5,385.5 304.5,386.5 306.5,386.5C 315.27,394.098 323.937,401.931 332.5,410C 325.442,417.961 318.276,425.795 311,433.5C 297.359,422.691 284.525,411.024 272.5,398.5C 272.027,397.094 271.027,396.427 269.5,396.5C 260.871,389.04 252.371,381.374 244,373.5C 243.5,328.168 243.333,282.835 243.5,237.5 Z"/></g>
<g><path style="opacity:0.699" fill="#ff7c78" d="M 243.5,237.5 C 272.995,236.502 302.662,236.169 332.5,236.5C 332.5,247.5 332.5,258.5 332.5,269.5C 313.5,269.5 294.5,269.5 275.5,269.5C 275.5,299.167 275.5,328.833 275.5,358.5C 274.502,328.671 274.169,298.671 274.5,268.5C 293.5,268.5 312.5,268.5 331.5,268.5C 331.5,258.167 331.5,247.833 331.5,237.5C 302.167,237.5 272.833,237.5 243.5,237.5 Z"/></g>
<g><path style="opacity:0.561" fill="#ffa8a4" d="M 292.5,373.5 C 293.5,373.833 294.167,374.5 294.5,375.5C 293.167,375.5 292.5,374.833 292.5,373.5 Z"/></g>
<g><path style="opacity:0.953" fill="#ff8679" d="M 299.5,380.5 C 301.23,381.026 302.564,382.026 303.5,383.5C 301.368,383.446 300.035,382.446 299.5,380.5 Z"/></g>
<g><path style="opacity:0.561" fill="#ffa9a6" d="M 303.5,383.5 C 304.833,384.167 305.833,385.167 306.5,386.5C 304.5,386.5 303.5,385.5 303.5,383.5 Z"/></g>
<g><path style="opacity:0.49" fill="#ff9389" d="M 269.5,396.5 C 271.027,396.427 272.027,397.094 272.5,398.5C 270.973,398.573 269.973,397.906 269.5,396.5 Z"/></g>
</svg>
