<?xml version="1.0" encoding="UTF-8" standalone="no"?>
<!-- Created with Inkscape (http://www.inkscape.org/) -->

<svg
   width="210mm"
   height="297mm"
   viewBox="0 0 210 297"
   version="1.1"
   id="svg5"
   xml:space="preserve"
   inkscape:version="1.2 (dc2aedaf03, 2022-05-15)"
   sodipodi:docname="Hutanbelantara.svg"
   xmlns:inkscape="http://www.inkscape.org/namespaces/inkscape"
   xmlns:sodipodi="http://sodipodi.sourceforge.net/DTD/sodipodi-0.dtd"
   xmlns="http://www.w3.org/2000/svg"
   xmlns:svg="http://www.w3.org/2000/svg"><sodipodi:namedview
     id="namedview7"
     pagecolor="#ffffff"
     bordercolor="#000000"
     borderopacity="0.25"
     inkscape:showpageshadow="2"
     inkscape:pageopacity="0.0"
     inkscape:pagecheckerboard="0"
     inkscape:deskcolor="#d1d1d1"
     inkscape:document-units="mm"
     showgrid="false"
     inkscape:zoom="0.72515432"
     inkscape:cx="397.15684"
     inkscape:cy="453.00702"
     inkscape:window-width="1920"
     inkscape:window-height="1001"
     inkscape:window-x="-9"
     inkscape:window-y="-9"
     inkscape:window-maximized="1"
     inkscape:current-layer="layer1" /><defs
     id="defs2" /><g
     inkscape:label="Layer 1"
     inkscape:groupmode="layer"
     id="layer1"><g
       id="g3283"
       transform="matrix(0.33459087,0,0,-0.32110482,189.85235,204.36267)"
       style="stroke-width:3.05084079;stroke-dasharray:none"><path
         d="m 0,0 -0.12,5.22 -0.36,5.22 -0.54,5.16 c -7.561,55.437 -53.785,97.852 -109.74,100.26 l -5.22,0.12 -5.16,-0.12 C -179.191,113.278 -226.144,68.271 -231.48,10.44 l -0.36,-5.22 -0.12,-5.22 0.12,-5.16 0.36,-5.22 c 5.188,-55.96 49.149,-99.94 105.12,-105.12 l 5.22,-0.36 5.16,-0.12 c 58.223,0.191 106.958,42.786 114.96,100.44 l 0.54,5.16 0.36,5.22 z"
         style="fill:none;stroke:#000000;stroke-width:3.05084079;stroke-linecap:round;stroke-linejoin:round;stroke-miterlimit:10;stroke-dasharray:none;stroke-opacity:1"
         id="path3285" /><g
         id="g3287"
         transform="translate(-153.18,-84.12)"
         style="stroke-width:3.05084079;stroke-dasharray:none"><path
           d="M 0,0 -79.98,-63.48"
           style="fill:none;stroke:#000000;stroke-width:3.05084079;stroke-linecap:round;stroke-linejoin:round;stroke-miterlimit:10;stroke-dasharray:none;stroke-opacity:1"
           id="path3289" /><g
           id="g3291"
           transform="translate(-174.9,592.08)"
           style="stroke-width:3.05084079;stroke-dasharray:none"><path
             d="m 0,0 -0.12,5.22 -0.36,5.22 -0.6,5.16 c -7.526,55.517 -53.685,97.794 -109.68,100.26 l -5.22,0.12 -5.22,-0.12 C -179.117,113.346 -226.305,68.152 -231.48,10.44 l -0.36,-5.22 -0.12,-5.22 0.12,-5.16 0.36,-5.22 c 5.049,-55.864 49.26,-100.033 105.12,-105.12 l 5.16,-0.36 5.22,-0.06 c 57.974,-0.086 107.147,42.946 114.9,100.38 l 0.6,5.16 0.36,5.22 z"
             style="fill:none;stroke:#000000;stroke-width:3.05084079;stroke-linecap:round;stroke-linejoin:round;stroke-miterlimit:10;stroke-dasharray:none;stroke-opacity:1"
             id="path3293" /><g
             id="g3295"
             transform="translate(-153.18,-84.12)"
             style="stroke-width:3.05084079;stroke-dasharray:none"><path
               d="M 0,0 -79.98,-63.48"
               style="fill:none;stroke:#000000;stroke-width:3.05084079;stroke-linecap:round;stroke-linejoin:round;stroke-miterlimit:10;stroke-dasharray:none;stroke-opacity:1"
               id="path3297" /></g></g></g></g></g></svg>
