<?xml version="1.0" encoding="UTF-8" standalone="no"?>
<!-- Created with Inkscape (http://www.inkscape.org/) -->

<svg
   width="210mm"
   height="297mm"
   viewBox="0 0 210 297"
   version="1.1"
   id="svg5"
   xml:space="preserve"
   inkscape:version="1.2 (dc2aedaf03, 2022-05-15)"
   sodipodi:docname="Hutanbelukar.svg"
   xmlns:inkscape="http://www.inkscape.org/namespaces/inkscape"
   xmlns:sodipodi="http://sodipodi.sourceforge.net/DTD/sodipodi-0.dtd"
   xmlns="http://www.w3.org/2000/svg"
   xmlns:svg="http://www.w3.org/2000/svg"><sodipodi:namedview
     id="namedview7"
     pagecolor="#ffffff"
     bordercolor="#000000"
     borderopacity="0.25"
     inkscape:showpageshadow="2"
     inkscape:pageopacity="0.0"
     inkscape:pagecheckerboard="0"
     inkscape:deskcolor="#d1d1d1"
     inkscape:document-units="mm"
     showgrid="false"
     inkscape:zoom="0.72515432"
     inkscape:cx="397.15684"
     inkscape:cy="673.64971"
     inkscape:window-width="1920"
     inkscape:window-height="1001"
     inkscape:window-x="-9"
     inkscape:window-y="-9"
     inkscape:window-maximized="1"
     inkscape:current-layer="layer1" /><defs
     id="defs2" /><g
     inkscape:label="Layer 1"
     inkscape:groupmode="layer"
     id="layer1"><g
       id="g4945"
       transform="matrix(0.30061423,0,0,-0.29219691,47.246672,95.310634)"
       style="stroke-width:3.37409591;stroke-dasharray:none"><path
         d="m 0,0 -0.12,3.54 -0.36,3.54 -0.6,3.48 C -5.921,33.365 -25.055,50.065 -48.3,51.72 l -3.54,0.12 -3.54,-0.12 C -79.925,49.981 -99.717,31.425 -103.14,7.08 l -0.36,-3.54 -0.12,-3.54 0.12,-3.54 0.36,-3.48 c 3.042,-22.887 21.393,-41.238 44.28,-44.28 l 3.48,-0.36 3.54,-0.12 c 24.566,0.024 45.739,17.206 50.76,41.28 l 0.6,3.48 0.36,3.48 z"
         style="fill:none;stroke:#000000;stroke-width:3.37409591;stroke-linecap:round;stroke-linejoin:round;stroke-miterlimit:10;stroke-dasharray:none;stroke-opacity:1"
         id="path4947" /><g
         id="g4949"
         transform="translate(386.28,-343.2)"
         style="stroke-width:3.37409591;stroke-dasharray:none"><path
           d="m 0,0 -0.12,3.54 -0.36,3.54 -0.6,3.48 c -4.76,22.747 -23.966,39.532 -47.16,41.16 l -3.54,0.12 -3.54,-0.12 C -79.83,49.993 -99.74,31.428 -103.14,7.08 l -0.36,-3.54 -0.12,-3.54 0.12,-3.54 0.36,-3.48 c 3.214,-23.065 21.233,-41.022 44.28,-44.28 l 3.54,-0.36 3.54,-0.12 c 24.502,-0.008 45.743,17.289 50.7,41.28 l 0.6,3.48 0.36,3.48 z"
           style="fill:none;stroke:#000000;stroke-width:3.37409591;stroke-linecap:round;stroke-linejoin:round;stroke-miterlimit:10;stroke-dasharray:none;stroke-opacity:1"
           id="path4951" /><g
           id="g4953"
           transform="translate(-103.74,-148.92)"
           style="stroke-width:3.37409591;stroke-dasharray:none"><path
             d="m 0,0 -0.12,3.54 -0.36,3.54 -0.6,3.48 c -4.774,22.789 -23.942,39.522 -47.16,41.16 l -3.54,0.12 -3.54,-0.12 C -79.83,49.991 -99.714,31.443 -103.08,7.08 l -0.36,-3.54 -0.12,-3.54 0.12,-3.54 0.36,-3.48 c 3.145,-23.083 21.182,-41.052 44.22,-44.28 l 3.54,-0.36 3.54,-0.12 c 24.586,0.035 45.712,17.172 50.7,41.28 l 0.6,3.48 0.36,3.48 z"
             style="fill:none;stroke:#000000;stroke-width:3.37409591;stroke-linecap:round;stroke-linejoin:round;stroke-miterlimit:10;stroke-dasharray:none;stroke-opacity:1"
             id="path4955" /><g
             id="g4957"
             transform="translate(201,-25.86)"
             style="stroke-width:3.37409591;stroke-dasharray:none"><path
               d="m 0,0 -0.12,3.48 -0.36,3.54 -0.6,3.48 c -4.787,22.787 -24,39.526 -47.22,41.16 l -3.54,0.12 -3.54,-0.12 C -79.891,49.922 -99.742,31.36 -103.14,7.02 l -0.36,-3.54 -0.12,-3.48 0.12,-3.54 0.36,-3.54 c 3.215,-23.025 21.252,-41.083 44.28,-44.28 l 3.48,-0.36 3.54,-0.12 c 24.581,0.028 45.699,17.226 50.76,41.28 l 0.6,3.48 0.36,3.54 z"
               style="fill:none;stroke:#000000;stroke-width:3.37409591;stroke-linecap:round;stroke-linejoin:round;stroke-miterlimit:10;stroke-dasharray:none;stroke-opacity:1"
               id="path4959" /><g
               id="g4961"
               transform="translate(-379.86,666.9)"
               style="stroke-width:3.37409591;stroke-dasharray:none"><path
                 d="m 0,0 -0.12,3.54 -0.36,3.54 -0.6,3.48 c -4.578,22.639 -24.14,39.638 -47.16,41.16 l -3.54,0.12 -3.54,-0.12 C -79.787,50.029 -99.752,31.391 -103.08,7.08 l -0.36,-3.54 -0.12,-3.54 0.12,-3.54 0.36,-3.48 c 3.109,-22.985 21.265,-41.097 44.22,-44.28 l 3.54,-0.36 3.54,-0.12 c 24.497,0.008 45.78,17.247 50.7,41.28 l 0.6,3.48 0.36,3.48 z"
                 style="fill:none;stroke:#000000;stroke-width:3.37409591;stroke-linecap:round;stroke-linejoin:round;stroke-miterlimit:10;stroke-dasharray:none;stroke-opacity:1"
                 id="path4963" /><g
                 id="g4965"
                 transform="translate(97.26,-174.78)"
                 style="stroke-width:3.37409591;stroke-dasharray:none"><path
                   d="m 0,0 -0.12,3.48 -0.36,3.54 -0.6,3.48 c -4.691,22.7 -24.033,39.577 -47.16,41.16 l -3.54,0.12 -3.54,-0.12 C -79.846,49.921 -99.739,31.391 -103.14,7.02 l -0.36,-3.54 -0.12,-3.48 0.12,-3.54 0.36,-3.54 c 3.23,-23.059 21.237,-41.023 44.28,-44.28 l 3.54,-0.36 3.54,-0.12 c 24.572,0.033 45.668,17.242 50.7,41.28 l 0.6,3.48 0.36,3.54 z"
                   style="fill:none;stroke:#000000;stroke-width:3.37409591;stroke-linecap:round;stroke-linejoin:round;stroke-miterlimit:10;stroke-dasharray:none;stroke-opacity:1"
                   id="path4967" /></g></g></g></g></g></g></g></svg>
