<?xml version="1.0" encoding="UTF-8" standalone="no"?>
<!-- Created with Inkscape (http://www.inkscape.org/) -->

<svg
   width="210mm"
   height="297mm"
   viewBox="0 0 210 297"
   version="1.1"
   id="svg5"
   xml:space="preserve"
   inkscape:version="1.2 (dc2aedaf03, 2022-05-15)"
   sodipodi:docname="kebuncamp.svg"
   xmlns:inkscape="http://www.inkscape.org/namespaces/inkscape"
   xmlns:sodipodi="http://sodipodi.sourceforge.net/DTD/sodipodi-0.dtd"
   xmlns="http://www.w3.org/2000/svg"
   xmlns:svg="http://www.w3.org/2000/svg"><sodipodi:namedview
     id="namedview7"
     pagecolor="#ffffff"
     bordercolor="#000000"
     borderopacity="0.25"
     inkscape:showpageshadow="2"
     inkscape:pageopacity="0.0"
     inkscape:pagecheckerboard="0"
     inkscape:deskcolor="#d1d1d1"
     inkscape:document-units="mm"
     showgrid="false"
     inkscape:zoom="0.72515432"
     inkscape:cx="397.15684"
     inkscape:cy="673.64971"
     inkscape:window-width="1920"
     inkscape:window-height="1001"
     inkscape:window-x="-9"
     inkscape:window-y="-9"
     inkscape:window-maximized="1"
     inkscape:current-layer="layer1" /><defs
     id="defs2" /><g
     inkscape:label="Layer 1"
     inkscape:groupmode="layer"
     id="layer1"><g
       id="g7993"
       transform="matrix(0.28652163,0,0,-0.29229544,180.4824,233.17143)"
       style="stroke-width:3.45549504;stroke-dasharray:none"><path
         d="m 0,0 -0.12,5.1 -0.36,5.04 -0.6,4.98 c -7.263,50.492 -49.251,88.656 -100.2,91.08 l -5.04,0.12 -5.04,-0.12 c -52.875,-2.545 -95.682,-43.382 -100.8,-96.06 l -0.36,-5.04 -0.12,-5.1 0.12,-5.04 0.36,-5.04 c 4.921,-50.845 44.952,-90.81 95.76,-95.76 l 5.04,-0.36 5.04,-0.12 c 52.92,0.091 97.658,38.777 105.24,91.2 l 0.6,5.04 0.36,5.04 z"
         style="fill:none;stroke:#000000;stroke-width:3.45549504;stroke-linecap:round;stroke-linejoin:round;stroke-miterlimit:10;stroke-dasharray:none;stroke-opacity:1"
         id="path7995" /><g
         id="g7997"
         transform="translate(-363.54,466.56)"
         style="stroke-width:3.45549504;stroke-dasharray:none"><path
           d="m 0,0 -0.12,5.1 -0.36,5.04 -0.6,5.04 c -7.193,50.357 -49.308,88.661 -100.14,91.02 l -5.1,0.12 -5.04,-0.12 c -52.868,-2.492 -95.654,-43.44 -100.8,-96.06 l -0.36,-5.04 -0.12,-5.1 0.12,-5.04 0.36,-5.04 c 4.964,-50.797 44.96,-90.811 95.76,-95.76 l 5.04,-0.36 5.04,-0.12 c 52.831,0.032 97.764,38.87 105.24,91.2 l 0.6,5.04 0.36,5.04 z"
           style="fill:none;stroke:#000000;stroke-width:3.45549504;stroke-linecap:round;stroke-linejoin:round;stroke-miterlimit:10;stroke-dasharray:none;stroke-opacity:1"
           id="path7999" /><g
           id="g8001"
           transform="translate(209.64,-371.46)"
           style="stroke-width:3.45549504;stroke-dasharray:none"><path
             d="M 0,0 -71.34,91.56"
             style="fill:none;stroke:#000000;stroke-width:3.45549504;stroke-linecap:round;stroke-linejoin:round;stroke-miterlimit:10;stroke-dasharray:none;stroke-opacity:1"
             id="path8003" /><g
             id="g8005"
             transform="translate(-363.54,466.56)"
             style="stroke-width:3.45549504;stroke-dasharray:none"><path
               d="M 0,0 -71.28,91.56"
               style="fill:none;stroke:#000000;stroke-width:3.45549504;stroke-linecap:round;stroke-linejoin:round;stroke-miterlimit:10;stroke-dasharray:none;stroke-opacity:1"
               id="path8007" /></g></g></g></g></g></svg>
