<?xml version="1.0" encoding="UTF-8" standalone="no"?>
<!-- Created with Inkscape (http://www.inkscape.org/) -->

<svg
   width="210mm"
   height="297mm"
   viewBox="0 0 210 297"
   version="1.1"
   id="svg5"
   xml:space="preserve"
   inkscape:version="1.2 (dc2aedaf03, 2022-05-15)"
   sodipodi:docname="perkebunan.svg"
   xmlns:inkscape="http://www.inkscape.org/namespaces/inkscape"
   xmlns:sodipodi="http://sodipodi.sourceforge.net/DTD/sodipodi-0.dtd"
   xmlns="http://www.w3.org/2000/svg"
   xmlns:svg="http://www.w3.org/2000/svg"><sodipodi:namedview
     id="namedview7"
     pagecolor="#ffffff"
     bordercolor="#000000"
     borderopacity="0.25"
     inkscape:showpageshadow="2"
     inkscape:pageopacity="0.0"
     inkscape:pagecheckerboard="0"
     inkscape:deskcolor="#d1d1d1"
     inkscape:document-units="mm"
     showgrid="false"
     inkscape:zoom="0.72515432"
     inkscape:cx="397.15684"
     inkscape:cy="578.49755"
     inkscape:window-width="1920"
     inkscape:window-height="1001"
     inkscape:window-x="-9"
     inkscape:window-y="-9"
     inkscape:window-maximized="1"
     inkscape:current-layer="layer1" /><defs
     id="defs2" /><g
     inkscape:label="Layer 1"
     inkscape:groupmode="layer"
     id="layer1"><g
       id="g17902"
       transform="matrix(0.35277777,0,0,-0.35277777,170.42554,88.07854)"
       style="stroke-width:2.83464573;stroke-dasharray:none"><path
         d="M 0,0 V -129.3 H -63.06"
         style="fill:none;stroke:#000000;stroke-width:2.83464573;stroke-linecap:round;stroke-linejoin:round;stroke-miterlimit:10;stroke-dasharray:none;stroke-opacity:1"
         id="path17904" /><g
         id="g17906"
         transform="translate(-223.32,-453.78)"
         style="stroke-width:2.83464573;stroke-dasharray:none"><path
           d="M 0,0 V -129.36 H -63.06"
           style="fill:none;stroke:#000000;stroke-width:2.83464573;stroke-linecap:round;stroke-linejoin:round;stroke-miterlimit:10;stroke-dasharray:none;stroke-opacity:1"
           id="path17908" /><g
           id="g17910"
           transform="translate(93.24,94.44)"
           style="stroke-width:2.83464573;stroke-dasharray:none"><path
             d="m 0,0 -0.12,4.74 -0.36,4.8 -0.6,4.74 c -6.849,44.362 -43.744,77.692 -88.56,80.04 l -4.8,0.12 -4.8,-0.12 C -145.851,91.869 -183.61,55.977 -188.4,9.54 l -0.36,-4.8 -0.12,-4.74 0.12,-4.8 0.36,-4.8 c 4.574,-44.575 39.807,-79.875 84.42,-84.36 l 4.74,-0.36 4.8,-0.12 c 46.711,-0.003 86.221,33.973 93.36,80.1 l 0.6,4.74 0.36,4.8 z"
             style="fill:none;stroke:#000000;stroke-width:2.83464573;stroke-linecap:round;stroke-linejoin:round;stroke-miterlimit:10;stroke-dasharray:none;stroke-opacity:1"
             id="path17912" /><g
             id="g17914"
             transform="translate(223.38,453.78)"
             style="stroke-width:2.83464573;stroke-dasharray:none"><path
               d="m 0,0 -0.12,4.8 -0.42,4.74 -0.6,4.74 C -7.86,58.587 -44.959,92.059 -89.7,94.32 l -4.8,0.12 -4.74,-0.12 c -46.688,-2.435 -84.329,-38.279 -89.22,-84.78 l -0.36,-4.74 -0.12,-4.8 0.12,-4.8 0.36,-4.74 c 4.702,-44.712 39.705,-79.79 84.42,-84.42 l 4.8,-0.36 4.74,-0.12 c 46.52,-0.094 86.45,34.14 93.36,80.16 l 0.6,4.74 0.42,4.74 z"
               style="fill:none;stroke:#000000;stroke-width:2.83464573;stroke-linecap:round;stroke-linejoin:round;stroke-miterlimit:10;stroke-dasharray:none;stroke-opacity:1"
               id="path17916" /></g></g></g></g></g></svg>
