<?xml version="1.0" encoding="UTF-8" standalone="no"?>
<svg
   viewBox="0 0 19.46875 19.46875"
   id="svg2"
   version="1.1"
   inkscape:version="1.1.1 (3bf5ae0d25, 2021-09-20)"
   width="100%"
   height="100%"
   sodipodi:docname="Pompa.svg"
   xmlns:inkscape="http://www.inkscape.org/namespaces/inkscape"
   xmlns:sodipodi="http://sodipodi.sourceforge.net/DTD/sodipodi-0.dtd"
   xmlns="http://www.w3.org/2000/svg"
   xmlns:svg="http://www.w3.org/2000/svg"
   xmlns:rdf="http://www.w3.org/1999/02/22-rdf-syntax-ns#"
   xmlns:cc="http://creativecommons.org/ns#"
   xmlns:dc="http://purl.org/dc/elements/1.1/">
  <metadata
     id="metadata90">
    <rdf:RDF>
      <cc:Work
         rdf:about="">
        <dc:format>image/svg+xml</dc:format>
        <dc:type
           rdf:resource="http://purl.org/dc/dcmitype/StillImage" />
        <dc:title />
      </cc:Work>
    </rdf:RDF>
  </metadata>
  <defs
     id="defs88">
    <marker
       style="overflow:visible"
       refY="0.0"
       refX="0.0"
       orient="auto"
       id="DistanceX">
      <path
         id="path3823"
         style="stroke:#000000; stroke-width:0.5"
         d="M 3,-3 L -3,3 M 0,-5 L  0,5" />
    </marker>
    <pattern
       y="0"
       x="0"
       width="8"
       patternUnits="userSpaceOnUse"
       id="Hatch"
       height="8">
      <path
         id="path3826"
         stroke-width="0.25"
         stroke="#000000"
         linecap="square"
         d="M8 4 l-4,4" />
      <path
         id="path3828"
         stroke-width="0.25"
         stroke="#000000"
         linecap="square"
         d="M6 2 l-4,4" />
      <path
         id="path3830"
         stroke-width="0.25"
         stroke="#000000"
         linecap="square"
         d="M4 0 l-4,4" />
    </pattern>
    <symbol
       id="*MODEL_SPACE" />
    <symbol
       id="*PAPER_SPACE" />
    <marker
       style="overflow:visible"
       refY="0.0"
       refX="0.0"
       orient="auto"
       id="DistanceX-7">
      <path
         id="path3903"
         style="stroke:#000000; stroke-width:0.5"
         d="M 3,-3 L -3,3 M 0,-5 L  0,5" />
    </marker>
    <pattern
       y="0"
       x="0"
       width="8"
       patternUnits="userSpaceOnUse"
       id="Hatch-8"
       height="8">
      <path
         id="path3906"
         stroke-width="0.25"
         stroke="#000000"
         linecap="square"
         d="M8 4 l-4,4" />
      <path
         id="path3908"
         stroke-width="0.25"
         stroke="#000000"
         linecap="square"
         d="M6 2 l-4,4" />
      <path
         id="path3910"
         stroke-width="0.25"
         stroke="#000000"
         linecap="square"
         d="M4 0 l-4,4" />
    </pattern>
    <symbol
       id="*MODEL_SPACE-5" />
    <symbol
       id="*PAPER_SPACE-3" />
    <marker
       style="overflow:visible"
       refY="0.0"
       refX="0.0"
       orient="auto"
       id="DistanceX-3">
      <path
         id="path3947"
         style="stroke:#000000; stroke-width:0.5"
         d="M 3,-3 L -3,3 M 0,-5 L  0,5" />
    </marker>
    <pattern
       y="0"
       x="0"
       width="8"
       patternUnits="userSpaceOnUse"
       id="Hatch-6"
       height="8">
      <path
         id="path3950"
         stroke-width="0.25"
         stroke="#000000"
         linecap="square"
         d="M8 4 l-4,4" />
      <path
         id="path3952"
         stroke-width="0.25"
         stroke="#000000"
         linecap="square"
         d="M6 2 l-4,4" />
      <path
         id="path3954"
         stroke-width="0.25"
         stroke="#000000"
         linecap="square"
         d="M4 0 l-4,4" />
    </pattern>
    <symbol
       id="*MODEL_SPACE-0" />
    <symbol
       id="*PAPER_SPACE-9" />
    <pattern
       id="EMFhbasepattern"
       patternUnits="userSpaceOnUse"
       width="6"
       height="6"
       x="0"
       y="0" />
    <pattern
       id="EMFhbasepattern-5"
       patternUnits="userSpaceOnUse"
       width="6"
       height="6"
       x="0"
       y="0" />
  </defs>
  <sodipodi:namedview
     pagecolor="#ffffff"
     bordercolor="#666666"
     borderopacity="1"
     objecttolerance="10"
     gridtolerance="10"
     guidetolerance="10"
     inkscape:pageopacity="0"
     inkscape:pageshadow="2"
     inkscape:window-width="2400"
     inkscape:window-height="1261"
     id="namedview86"
     showgrid="false"
     inkscape:zoom="22.627418"
     inkscape:cx="10.142562"
     inkscape:cy="11.556776"
     inkscape:window-x="2391"
     inkscape:window-y="-9"
     inkscape:window-maximized="1"
     inkscape:current-layer="layer4"
     showguides="false"
     inkscape:guide-bbox="true"
     fit-margin-top="0"
     fit-margin-left="0"
     fit-margin-right="0"
     fit-margin-bottom="0"
     inkscape:document-rotation="0"
     inkscape:pagecheckerboard="0">
    <sodipodi:guide
       orientation="1,0"
       position="-0.26250044,36.560954"
       id="guide3018"
       inkscape:locked="false" />
    <sodipodi:guide
       orientation="0,1"
       position="-22.309534,9.7362514"
       id="guide3020"
       inkscape:locked="false" />
    <sodipodi:guide
       orientation="0,1"
       position="-47.078644,19.736251"
       id="guide3022"
       inkscape:locked="false" />
    <sodipodi:guide
       orientation="1,0"
       position="19.7375,54.779561"
       id="guide3024"
       inkscape:locked="false" />
    <sodipodi:guide
       orientation="1,0"
       position="9.7375,80.367481"
       id="guide3026"
       inkscape:locked="false" />
    <sodipodi:guide
       orientation="0,1"
       position="-137.76225,-0.2637485"
       id="guide3028"
       inkscape:locked="false" />
  </sodipodi:namedview>
  <g
     inkscape:groupmode="layer"
     id="layer4"
     inkscape:label="diff"
     style="display:inline">
    <g
       inkscape:label="0"
       id="g3837"
       transform="matrix(0.58586297,0,0,0.58586297,-739.96873,-398.17113)" />
    <g
       inkscape:label="0"
       id="g3961"
       transform="matrix(0.55009437,0,0,0.55009437,-694.25783,-373.32684)" />
    <path
       style="fill:none;fill-opacity:1;stroke:#ff0a00;stroke-width:0.228597;stroke-linecap:round;stroke-linejoin:round;stroke-miterlimit:4;stroke-dasharray:none;stroke-opacity:1"
       d="M 18.873274,9.7751591 18.87122,9.5635381 18.8633,9.3519186 18.851389,9.1402979 18.833523,8.9286772 18.811678,8.7170588 18.785862,8.5074341 18.754081,8.2978106 18.71834,8.0901831 18.676643,7.8825556 18.630967,7.674928 18.58131,7.4692967 18.525698,7.2656624 18.466126,7.0620282 18.400609,6.8603899 18.331102,6.6607488 18.257614,6.4611066 18.180157,6.2654587 18.096754,6.0698097 18.009381,5.8761567 17.918028,5.6864971 17.822736,5.4968384 17.721448,5.3111718 17.616192,5.1275012 17.508946,4.9458268 17.395748,4.7661495 17.278579,4.5904654 17.157438,4.4167762 17.032325,4.2470813 16.90324,4.0793826 16.770184,3.9136798 16.635141,3.7539662 16.494141,3.5942527 16.351154,3.4405284 16.204195,3.2888013 16.053265,3.1410662 15.900349,2.9953283 15.741475,2.8555786 15.582602,2.717826 15.417771,2.5840666 15.250953,2.4542992 15.082151,2.3285252 14.909375,2.2067432 14.734614,2.0889543 14.557867,1.9751598 14.377148,1.8653551 14.194443,1.7615408 14.009752,1.659727 13.82109,1.5639038 13.632426,1.4720698 13.44178,1.384226 13.247158,1.300372 13.052538,1.220519 12.853946,1.146645 12.655355,1.076772 12.454776,1.01289 12.254198,0.950997 12.051633,0.897095 11.847084,0.8451823 11.640548,0.7992603 11.434013,0.7573393 11.227476,0.7214083 11.018953,0.6894673 10.810433,0.6635163 10.599925,0.6415553 10.391404,0.6235843 10.180896,0.6116033 9.9703885,0.6036733 9.7598798,0.6016633 9.5493723,0.6036733 9.3388647,0.6116033 9.1283572,0.6235843 8.9198356,0.6415553 8.7093279,0.6635163 8.5008061,0.6894673 8.2922843,0.7214083 8.0857488,0.7573393 7.8792124,0.7992613 7.6726769,0.8451833 7.4681267,0.897096 7.2655626,0.9509984 7.0649846,1.0128913 6.8644066,1.0767733 6.6658145,1.1466459 6.4672223,1.2205195 6.272602,1.3003724 6.0779817,1.3842262 5.8873333,1.4720699 5.6986707,1.5639035 5.510008,1.659727 5.3253173,1.7615408 5.1426126,1.8653551 4.9618936,1.9751598 4.7851466,2.0889543 4.6103868,2.2067432 4.4376117,2.3285252 4.2688084,2.4542992 4.1019909,2.5840666 3.9371594,2.717826 3.7782855,2.8555786 3.6194119,2.9953283 3.4664961,3.1410662 3.3155659,3.2888013 3.1686078,3.4405284 3.0256212,3.5942527 2.8846212,3.7539662 2.7495781,3.9136798 2.6165215,4.0793826 2.4874366,4.2470813 2.3623234,4.4167762 2.2411823,4.5904654 2.1240127,4.7661495 2.0108155,4.9458268 1.9035757,5.1275012 1.798322,5.3111718 1.6970413,5.4968384 1.6017163,5.6864971 1.5103633,5.8761567 1.4229833,6.0698097 1.3395743,6.2654587 1.2621223,6.4611066 1.1886433,6.6607488 1.1191363,6.8603899 1.0536013,7.0620282 0.9940238,7.2656624 0.9384186,7.4692967 0.8887701,7.674928 0.8430936,7.8825556 0.801389,8.0901831 0.7656424,8.2978106 0.7338678,8.5074341 0.7080512,8.7170588 0.6862042,8.9286772 0.6683314,9.1402979 0.6564166,9.3519186 l -0.007946,0.2116195 -0.001978,0.211621 0.001978,0.2116199 0.007946,0.21162 0.0119148,0.211621 0.0178728,0.211619 0.021847,0.21162 0.0258166,0.209625 0.0317746,0.209622 0.0357466,0.207629 0.0417046,0.207627 0.0456765,0.207626 0.0496485,0.205632 0.0556052,0.203634 0.0595775,0.203635 0.065535,0.201638 0.069507,0.199642 0.073479,0.199641 0.077452,0.195649 0.083409,0.195649 0.08738,0.193653 0.091353,0.189659 0.095325,0.18966 0.1012807,0.185667 0.1052537,0.183669 0.1072398,0.181673 0.1131972,0.17968 0.1171696,0.175684 0.1211411,0.173688 0.1251132,0.169696 0.1290849,0.167699 0.1330566,0.165702 0.1350431,0.159713 0.141,0.159713 0.1429866,0.153724 0.1469581,0.151728 0.1509302,0.147735 0.1529158,0.145738 0.1588736,0.139749 0.1588739,0.137753 0.1648315,0.133761 0.1668175,0.129766 0.1688033,0.125775 0.1727751,0.121781 0.1747609,0.117789 0.1767471,0.113795 0.1807189,0.109805 0.1827048,0.103814 0.1846907,0.101814 0.1886626,0.09582 0.1886625,0.09183 0.1906485,0.08784 0.1946203,0.08385 0.1946203,0.07985 0.1985923,0.07387 0.1985922,0.06987 0.2005778,0.06388 0.2005779,0.0619 0.2025642,0.0539 0.2045502,0.05192 0.2065356,0.04593 0.2065362,0.04192 0.2065356,0.03594 0.2085217,0.03194 0.2085219,0.02595 0.2105077,0.02196 0.2085215,0.01796 0.2105076,0.01198 0.2105075,0.0079 0.2105076,0.0021 0.2105086,-0.0021 0.2105075,-0.0079 0.210508,-0.01198 0.208521,-0.01796 0.210507,-0.02196 0.208521,-0.02595 0.208523,-0.03194 0.206537,-0.03594 0.206535,-0.04192 0.206536,-0.04593 0.204549,-0.05192 0.202566,-0.0539 0.200577,-0.0619 0.200579,-0.06388 0.198591,-0.06987 0.198592,-0.07387 0.19462,-0.07985 0.194622,-0.08385 0.190646,-0.08784 0.188664,-0.09183 0.188662,-0.09582 0.184691,-0.101814 0.182705,-0.103814 0.180719,-0.109805 0.176747,-0.113795 0.174761,-0.117789 0.172776,-0.121781 0.168802,-0.125775 0.166818,-0.129766 0.164831,-0.133761 0.158874,-0.137753 0.158873,-0.139749 0.152916,-0.145738 0.15093,-0.147735 0.146959,-0.151728 0.142987,-0.153724 0.141,-0.159713 0.135043,-0.159713 0.133056,-0.165702 0.129085,-0.167699 0.125113,-0.169696 0.121141,-0.173688 0.117169,-0.175684 0.113198,-0.17968 0.107246,-0.181673 0.105256,-0.183669 0.101277,-0.185667 0.09532,-0.18966 0.09135,-0.189659 0.08738,-0.193653 0.0834,-0.195649 0.07746,-0.195649 0.07349,-0.199641 0.06951,-0.199642 0.06554,-0.201638 0.05957,-0.203635 0.05561,-0.203634 0.04966,-0.205632 0.04568,-0.207626 0.0417,-0.207627 0.03574,-0.207629 0.03178,-0.209622 0.02581,-0.209625 0.02186,-0.21162 0.01787,-0.211619 0.01191,-0.211621 0.0079,-0.21162 z"
       id="path937" />
    <path
       style="fill:none;fill-opacity:1;stroke:#ff0a00;stroke-width:0.228597;stroke-linecap:round;stroke-linejoin:round;stroke-miterlimit:4;stroke-dasharray:none;stroke-opacity:1"
       d="M 7.9368034,2.4363316 H 9.7598798 V 17.113987 h 1.8230752"
       id="path939" />
    <path
       style="fill:none;stroke:#ff0a00;stroke-width:0.00198593px;stroke-linecap:round;stroke-linejoin:round;stroke-miterlimit:4;stroke-dasharray:none;stroke-opacity:1"
       d="M 2.4675756,11.609866 V 9.7751591 H 17.052183 V 7.940452"
       id="path941" />
    <path
       style="fill:none;fill-opacity:1;stroke:#ff0a00;stroke-width:1;stroke-linecap:round;stroke-linejoin:round;stroke-miterlimit:4;stroke-dasharray:none;stroke-opacity:1"
       d="M 18.873274,9.7751591 18.87122,9.5635381 18.8633,9.3519186 18.851389,9.1402979 18.833523,8.9286772 18.811678,8.7170588 18.785862,8.5074341 18.754081,8.2978106 18.71834,8.0901831 18.676643,7.8825556 18.630967,7.674928 18.58131,7.4692967 18.525698,7.2656624 18.466126,7.0620282 18.400609,6.8603899 18.331102,6.6607488 18.257614,6.4611066 18.180157,6.2654587 18.096754,6.0698097 18.009381,5.8761567 17.918028,5.6864971 17.822736,5.4968384 17.721448,5.3111718 17.616192,5.1275012 17.508946,4.9458268 17.395748,4.7661495 17.278579,4.5904654 17.157438,4.4167762 17.032325,4.2470813 16.90324,4.0793826 16.770184,3.9136798 16.635141,3.7539662 16.494141,3.5942527 16.351154,3.4405284 16.204195,3.2888013 16.053265,3.1410662 15.900349,2.9953283 15.741475,2.8555786 15.582602,2.717826 15.417771,2.5840666 15.250953,2.4542992 15.082151,2.3285252 14.909375,2.2067432 14.734614,2.0889543 14.557867,1.9751598 14.377148,1.8653551 14.194443,1.7615408 14.009752,1.659727 13.82109,1.5639038 13.632426,1.4720698 13.44178,1.384226 13.247158,1.300372 13.052538,1.220519 12.853946,1.146645 12.655355,1.076772 12.454776,1.01289 12.254198,0.950997 12.051633,0.897095 11.847084,0.8451823 11.640548,0.7992603 11.434013,0.7573393 11.227476,0.7214083 11.018953,0.6894673 10.810433,0.6635163 10.599925,0.6415553 10.391404,0.6235843 10.180896,0.6116033 9.9703885,0.6036733 9.7598798,0.6016633 9.5493723,0.6036733 9.3388647,0.6116033 9.1283572,0.6235843 8.9198356,0.6415553 8.7093279,0.6635163 8.5008061,0.6894673 8.2922843,0.7214083 8.0857488,0.7573393 7.8792124,0.7992613 7.6726769,0.8451833 7.4681267,0.897096 7.2655626,0.9509984 7.0649846,1.0128913 6.8644066,1.0767733 6.6658145,1.1466459 6.4672223,1.2205195 6.272602,1.3003724 6.0779817,1.3842262 5.8873333,1.4720699 5.6986707,1.5639035 5.510008,1.659727 5.3253173,1.7615408 5.1426126,1.8653551 4.9618936,1.9751598 4.7851466,2.0889543 4.6103868,2.2067432 4.4376117,2.3285252 4.2688084,2.4542992 4.1019909,2.5840666 3.9371594,2.717826 3.7782855,2.8555786 3.6194119,2.9953283 3.4664961,3.1410662 3.3155659,3.2888013 3.1686078,3.4405284 3.0256212,3.5942527 2.8846212,3.7539662 2.7495781,3.9136798 2.6165215,4.0793826 2.4874366,4.2470813 2.3623234,4.4167762 2.2411823,4.5904654 2.1240127,4.7661495 2.0108155,4.9458268 1.9035757,5.1275012 1.798322,5.3111718 1.6970413,5.4968384 1.6017163,5.6864971 1.5103633,5.8761567 1.4229833,6.0698097 1.3395743,6.2654587 1.2621223,6.4611066 1.1886433,6.6607488 1.1191363,6.8603899 1.0536013,7.0620282 0.9940238,7.2656624 0.9384186,7.4692967 0.8887701,7.674928 0.8430936,7.8825556 0.801389,8.0901831 0.7656424,8.2978106 0.7338678,8.5074341 0.7080512,8.7170588 0.6862042,8.9286772 0.6683314,9.1402979 0.6564166,9.3519186 l -0.007946,0.2116195 -0.001978,0.211621 0.001978,0.2116199 0.007946,0.21162 0.0119148,0.211621 0.0178728,0.211619 0.021847,0.21162 0.0258166,0.209625 0.0317746,0.209622 0.0357466,0.207629 0.0417046,0.207627 0.0456765,0.207626 0.0496485,0.205632 0.0556052,0.203634 0.0595775,0.203635 0.065535,0.201638 0.069507,0.199642 0.073479,0.199641 0.077452,0.195649 0.083409,0.195649 0.08738,0.193653 0.091353,0.189659 0.095325,0.18966 0.1012807,0.185667 0.1052537,0.183669 0.1072398,0.181673 0.1131972,0.17968 0.1171696,0.175684 0.1211411,0.173688 0.1251132,0.169696 0.1290849,0.167699 0.1330566,0.165702 0.1350431,0.159713 0.141,0.159713 0.1429866,0.153724 0.1469581,0.151728 0.1509302,0.147735 0.1529158,0.145738 0.1588736,0.139749 0.1588739,0.137753 0.1648315,0.133761 0.1668175,0.129766 0.1688033,0.125775 0.1727751,0.121781 0.1747609,0.117789 0.1767471,0.113795 0.1807189,0.109805 0.1827048,0.103814 0.1846907,0.101814 0.1886626,0.09582 0.1886625,0.09183 0.1906485,0.08784 0.1946203,0.08385 0.1946203,0.07985 0.1985923,0.07387 0.1985922,0.06987 0.2005778,0.06388 0.2005779,0.0619 0.2025642,0.0539 0.2045502,0.05192 0.2065356,0.04593 0.2065362,0.04192 0.2065356,0.03594 0.2085217,0.03194 0.2085219,0.02595 0.2105077,0.02196 0.2085215,0.01796 0.2105076,0.01198 0.2105075,0.0079 0.2105076,0.0021 0.2105086,-0.0021 0.2105075,-0.0079 0.210508,-0.01198 0.208521,-0.01796 0.210507,-0.02196 0.208521,-0.02595 0.208523,-0.03194 0.206537,-0.03594 0.206535,-0.04192 0.206536,-0.04593 0.204549,-0.05192 0.202566,-0.0539 0.200577,-0.0619 0.200579,-0.06388 0.198591,-0.06987 0.198592,-0.07387 0.19462,-0.07985 0.194622,-0.08385 0.190646,-0.08784 0.188664,-0.09183 0.188662,-0.09582 0.184691,-0.101814 0.182705,-0.103814 0.180719,-0.109805 0.176747,-0.113795 0.174761,-0.117789 0.172776,-0.121781 0.168802,-0.125775 0.166818,-0.129766 0.164831,-0.133761 0.158874,-0.137753 0.158873,-0.139749 0.152916,-0.145738 0.15093,-0.147735 0.146959,-0.151728 0.142987,-0.153724 0.141,-0.159713 0.135043,-0.159713 0.133056,-0.165702 0.129085,-0.167699 0.125113,-0.169696 0.121141,-0.173688 0.117169,-0.175684 0.113198,-0.17968 0.107246,-0.181673 0.105256,-0.183669 0.101277,-0.185667 0.09532,-0.18966 0.09135,-0.189659 0.08738,-0.193653 0.0834,-0.195649 0.07746,-0.195649 0.07349,-0.199641 0.06951,-0.199642 0.06554,-0.201638 0.05957,-0.203635 0.05561,-0.203634 0.04966,-0.205632 0.04568,-0.207626 0.0417,-0.207627 0.03574,-0.207629 0.03178,-0.209622 0.02581,-0.209625 0.02186,-0.21162 0.01787,-0.211619 0.01191,-0.211621 0.0079,-0.21162 z"
       id="path954" />
    <path
       style="fill:none;fill-opacity:1;stroke:#ff0a00;stroke-width:0.8;stroke-linecap:round;stroke-linejoin:round;stroke-miterlimit:4;stroke-dasharray:none;stroke-opacity:1"
       d="M 7.9368034,2.4363316 H 9.7598798 V 17.113987 h 1.8230752"
       id="path956" />
    <path
       style="fill:none;fill-opacity:1;stroke:#ff0a00;stroke-width:0.8;stroke-linecap:round;stroke-linejoin:bevel;stroke-miterlimit:4;stroke-dasharray:none;stroke-opacity:1"
       d="M 2.4675756,11.609866 V 9.7751591 H 17.052183 V 7.940452"
       id="path958" />
  </g>
  <g
     inkscape:groupmode="layer"
     id="layer3"
     inkscape:label="base_layer"
     style="display:inline" />
</svg>
